<svg xmlns="http://www.w3.org/2000/svg" fill="currentColor" viewBox="0 0 24 24">
  <path d="M12 2.2c3.2 0 3.6 0 4.9.1 1.3.1 2.2.3 2.7.6.6.3 1.1.8 1.4 1.4.3.5.5 1.4.6 2.7.1 1.3.1 1.7.1 4.9s0 3.6-.1 4.9c-.1 1.3-.3 2.2-.6 2.7-.3.6-.8 1.1-1.4 1.4-.5.3-1.4.5-2.7.6-1.3.1-1.7.1-4.9.1s-3.6 0-4.9-.1c-1.3-.1-2.2-.3-2.7-.6a3.2 3.2 0 0 1-1.4-1.4c-.3-.5-.5-1.4-.6-2.7C2.2 15.6 2.2 15.2 2.2 12s0-3.6.1-4.9c.1-1.3.3-2.2.6-2.7.3-.6.8-1.1 1.4-1.4.5-.3 1.4-.5 2.7-.6C8.4 2.2 8.8 2.2 12 2.2Zm0 1.8c-3.1 0-3.4 0-4.6.1-1.1.1-1.8.2-2.2.4-.5.2-.9.5-1.1 1.1-.2.4-.3 1.1-.4 2.2-.1 1.2-.1 1.5-.1 4.6s0 3.4.1 4.6c.1 1.1.2 1.8.4 2.2.2.5.5.9 1.1 1.1.4.2 1.1.3 2.2.4 1.2.1 1.5.1 4.6.1s3.4 0 4.6-.1c1.1-.1 1.8-.2 2.2-.4a2 2 0 0 0 1.1-1.1c.2-.4.3-1.1.4-2.2.1-1.2.1-1.5.1-4.6s0-3.4-.1-4.6c-.1-1.1-.2-1.8-.4-2.2a2 2 0 0 0-1.1-1.1c-.4-.2-1.1-.3-2.2-.4-1.2-.1-1.5-.1-4.6-.1Zm0 3.8a5.2 5.2 0 1 1 0 10.4 5.2 5.2 0 0 1 0-10.4Zm0 1.8a3.4 3.4 0 1 0 0 6.8 3.4 3.4 0 0 0 0-6.8Zm5.4-2.2a1.2 1.2 0 1 1 0 2.4 1.2 1.2 0 0 1 0-2.4Z"/>
</svg>