
<svg xmlns="http://www.w3.org/2000/svg" viewBox="0 0 448 512" fill="#ffffff">
  <path d="M380.9 97.1C339 55.2 283.2 32 224.1 32c-117 0-212 95-212 212 0 37.4 9.8 73.7 28.3 105.7L3.4 470.7c-3.4 9.9 6.3 19.5 16.2 16.2l120.9-36.9c30.7 16.8 65.1 25.8 100.4 25.8h.1c117 0 212-95 212-212 0-59.1-23.2-114.9-65.1-156.7zM224.1 438c-30.1 0-59.5-8-85.3-23.1l-6.1-3.6-71.7 21.9 22.9-69.8-3.9-6.4c-17.5-28.8-26.8-62-26.8-95.9 0-101.5 82.6-184.1 184.1-184.1 49.1 0 95.2 19.1 130 53.9s53.9 80.9 53.9 130-19.1 95.2-53.9 130c-34.8 34.8-80.9 53.9-130 53.9zm101.6-138.2c-5.5-2.8-32.5-16-37.6-17.8s-8.7-2.8-12.4 2.8-14.2 17.8-17.4 21.5-6.4 4.2-11.9 1.4-23.2-8.5-44.2-27.1c-16.3-14.6-27.3-32.6-30.5-38.1s-.3-8.5 2.1-11.2c2.2-2.3 5.5-6 8.3-9s3.7-5.1 5.6-8.5.9-6.4-.5-9.1-12.4-30-17-41.2c-4.5-10.8-9.1-9.3-12.4-9.5-3.2-.2-6.9-.2-10.6-.2s-9.7 1.4-14.8 6.9-19.4 19-19.4 46.3 19.9 53.7 22.7 57.4 39.2 60 95.1 84.2c13.3 5.7 23.6 9.1 31.7 11.6 13.3 4.2 25.4 3.6 35 2.2 10.7-1.6 32.5-13.3 37.1-26.2 4.6-12.9 4.6-23.9 3.2-26.2-1.3-2.2-5-3.6-10.5-6.4z"/>
</svg>
